<svg xmlns="http://www.w3.org/2000/svg" viewBox="0 0 22 15">
  <!-- White background -->
  <rect width="22" height="15" fill="#fff"/>
  <!-- Red stripes -->
  <rect width="22" height="1.15" y="0"    fill="#B22234"/>
  <rect width="22" height="1.15" y="2.31" fill="#B22234"/>
  <rect width="22" height="1.15" y="4.61" fill="#B22234"/>
  <rect width="22" height="1.15" y="6.92" fill="#B22234"/>
  <rect width="22" height="1.15" y="9.23" fill="#B22234"/>
  <rect width="22" height="1.15" y="11.54" fill="#B22234"/>
  <rect width="22" height="1.15" y="13.85" fill="#B22234"/>
  <!-- Blue canton -->
  <rect width="8.8" height="8.08" fill="#3C3B6E"/>
  <!-- Stars (simplified dots) -->
  <g fill="white" font-size="1.1">
    <circle cx="1.1" cy="1.0" r="0.45"/>
    <circle cx="2.9" cy="1.0" r="0.45"/>
    <circle cx="4.7" cy="1.0" r="0.45"/>
    <circle cx="6.5" cy="1.0" r="0.45"/>
    <circle cx="8.3" cy="1.0" r="0.45"/>
    <circle cx="2.0" cy="2.0" r="0.45"/>
    <circle cx="3.8" cy="2.0" r="0.45"/>
    <circle cx="5.6" cy="2.0" r="0.45"/>
    <circle cx="7.4" cy="2.0" r="0.45"/>
    <circle cx="1.1" cy="3.0" r="0.45"/>
    <circle cx="2.9" cy="3.0" r="0.45"/>
    <circle cx="4.7" cy="3.0" r="0.45"/>
    <circle cx="6.5" cy="3.0" r="0.45"/>
    <circle cx="8.3" cy="3.0" r="0.45"/>
    <circle cx="2.0" cy="4.0" r="0.45"/>
    <circle cx="3.8" cy="4.0" r="0.45"/>
    <circle cx="5.6" cy="4.0" r="0.45"/>
    <circle cx="7.4" cy="4.0" r="0.45"/>
    <circle cx="1.1" cy="5.0" r="0.45"/>
    <circle cx="2.9" cy="5.0" r="0.45"/>
    <circle cx="4.7" cy="5.0" r="0.45"/>
    <circle cx="6.5" cy="5.0" r="0.45"/>
    <circle cx="8.3" cy="5.0" r="0.45"/>
    <circle cx="2.0" cy="6.0" r="0.45"/>
    <circle cx="3.8" cy="6.0" r="0.45"/>
    <circle cx="5.6" cy="6.0" r="0.45"/>
    <circle cx="7.4" cy="6.0" r="0.45"/>
    <circle cx="1.1" cy="7.0" r="0.45"/>
    <circle cx="2.9" cy="7.0" r="0.45"/>
    <circle cx="4.7" cy="7.0" r="0.45"/>
    <circle cx="6.5" cy="7.0" r="0.45"/>
    <circle cx="8.3" cy="7.0" r="0.45"/>
  </g>
</svg>
